<svg width="20" height="27" viewBox="0 0 20 27" fill="none" xmlns="http://www.w3.org/2000/svg">
<path d="M10 0C11.1366 0 12.2267 0.449153 13.0305 1.24865C13.8342 2.04815 14.2857 3.1325 14.2857 4.26316V12.7895C14.2857 13.9201 13.8342 15.0045 13.0305 15.804C12.2267 16.6035 11.1366 17.0526 10 17.0526C8.86336 17.0526 7.77327 16.6035 6.96954 15.804C6.16581 15.0045 5.71429 13.9201 5.71429 12.7895V4.26316C5.71429 3.1325 6.16581 2.04815 6.96954 1.24865C7.77327 0.449153 8.86336 0 10 0ZM20 12.7895C20 17.8058 16.2714 21.9411 11.4286 22.6374V27H8.57143V22.6374C3.72857 21.9411 0 17.8058 0 12.7895H2.85714C2.85714 14.6739 3.60969 16.4812 4.94924 17.8137C6.28878 19.1461 8.1056 19.8947 10 19.8947C11.8944 19.8947 13.7112 19.1461 15.0508 17.8137C16.3903 16.4812 17.1429 14.6739 17.1429 12.7895H20Z" fill="#A3A3A3"/>
</svg>
