<svg width="76" height="45" viewBox="0 0 76 45" fill="none" xmlns="http://www.w3.org/2000/svg">
<path d="M2.37988 6.47559C4.64829 2.50504 8.5039 0.269345 13.0605 0.518555L13.0596 0.519531C21.1172 0.925143 27.505 7.73256 32.665 20.8154L33.1602 22.1016L33.7002 23.5498C34.9501 26.9353 36.1299 30.3643 37.2109 33.7617L37.3848 34.2568C37.5768 34.764 37.82 35.3098 38.0771 35.8896C38.7636 37.4378 39.5216 39.146 39.6494 40.8154L39.6846 41.2793L39.2236 41.3477L36.4199 41.7617L36.668 42.918L35.4648 41.7021L35.4609 41.6982L34.7656 40.9961L35.1875 40.9326C34.6123 39.1536 33.1536 37.8606 31.1748 36.835C29.0039 35.7097 26.3094 34.9558 23.7217 34.2334H23.7207C21.9327 33.7339 20.2069 33.2493 18.7559 32.6553C12.9553 30.2869 6.18103 27.5375 2.37598 20.8955C-0.1285 16.5234 -0.123114 10.8677 2.37988 6.47656V6.47559ZM12.4248 4.91602C8.86369 4.91602 6.99511 7.24939 6.17773 8.68164C4.43664 11.7263 4.43337 15.6624 6.16895 18.6885V18.6895C9.19701 23.9742 14.7905 26.2737 20.4043 28.5693C21.6087 29.0618 23.182 29.5011 24.8926 29.9805H24.8916C27.2118 30.626 29.8064 31.3517 32.166 32.4209C31.4679 30.3219 30.7392 28.2178 29.9795 26.127L29.0723 23.6699C26.7282 17.4452 24.2137 12.8229 21.5039 9.72363C18.8044 6.6362 15.9346 5.08353 12.8535 4.92383V4.9248L12.5498 4.91602H12.4248Z" fill="#466EBF" stroke="#466EBF"/>
<path d="M62.7773 0.521179C67.1693 0.292546 70.9482 2.37044 73.2432 6.11981L73.4609 6.487L73.6875 6.90302C75.961 11.2309 75.886 16.6629 73.46 20.8981V20.8991C69.6467 27.549 62.8767 30.2927 57.0801 32.6569C55.6286 33.2512 53.9022 33.7329 52.1152 34.2321V34.2311C49.5272 34.9557 46.8328 35.7117 44.6611 36.8376C42.6819 37.8637 41.2215 39.1562 40.6445 40.9352L41.6514 41.0856L40.2451 41.7956L40.2373 41.7995L39.3027 42.2722L39.4121 41.7634L36.6123 41.3503L36.1514 41.2829L36.1865 40.8181C36.3143 39.1442 37.0768 37.4354 37.7627 35.8845C38.1023 35.1136 38.4199 34.4068 38.625 33.7653C39.877 29.8449 41.2414 25.92 42.6758 22.1042L43.1709 20.8181C48.3311 7.73489 54.7194 0.927403 62.7773 0.522156V0.521179ZM62.9971 4.92645C59.9144 5.08116 57.0419 6.63372 54.3398 9.72528C51.6307 12.825 49.1164 17.4482 46.7725 23.6725C45.692 26.5404 44.6565 29.4754 43.6777 32.4196C46.0373 31.3503 48.632 30.6247 50.9521 29.9792L52.2061 29.6257C53.4265 29.2769 54.5372 28.9373 55.4404 28.5681L57.5381 27.7028C62.4072 25.6553 67.0187 23.3154 69.6719 18.6872C71.4074 15.6652 71.4079 11.7286 69.667 8.68427L69.666 8.68231C68.8543 7.24924 66.9798 4.91798 63.4189 4.91473L62.9971 4.92645Z" fill="#466EBF" stroke="#466EBF"/>
</svg>
